<svg version="1" xmlns="http://www.w3.org/2000/svg" width="341.333" height="341.333" viewBox="0 0 256.000000 256.000000"><path d="M67.1 18.6C46.4 24.1 33.9 42.7 32.3 70c-.4 8.1-.1 11.6 2.6 24.4 4.9 23.5 4.2 31.9-3.9 51-9.8 22.8-11.4 43.2-4.7 57.5 5 10.6 18.2 23.5 28.7 28 6.4 2.7 16.9 5.1 23 5.1 11.1 0 24.5-4.7 33.6-11.6l4.4-3.4 4.8 2.4c11.4 5.8 26.8 7.2 38.3 3.6 12.5-3.9 21.9-10.9 29.3-21.7 5.7-8.4 8.4-16 9.8-27.2 2.9-24.7 5.9-32.4 17.3-45.1 14.2-15.7 18.3-22.3 22.4-35.4 6.3-20.3 1.7-37.7-12.8-48.8-15.3-11.8-33.7-11.6-49.6.4-12.7 9.7-20.7 22-26.5 40.8-1.7 5.8-4.5 13-6.2 16.1-3.4 6.5-11.1 14.8-18.5 20.1l-5.2 3.7-.6-2.9c-1.4-6.5-.6-18.7 2.1-30.5 4.7-21.2 3.4-39.1-4.2-55.1-8.6-18.2-29.9-28-49.3-22.8zm21.6 8.9c11 3.5 20.6 14.3 23.7 26.7 1 4.2-3.5 6.1-15.8 6.8-8.7.4-10 .8-11.3 2.7-4.6 6.9 13.6 8.8 28 2.8 2.8-1.2 2.3 12.9-.9 26.8-5.3 22.7-4.3 34.5 4.4 55.4 5.2 12.3 7.2 19.2 7.2 24.2 0 2.4-1.1 3.8-6.5 8-6.8 5.3-7.6 6.9-4.9 9.5 2.2 2.3 3.5 2 8.4-1.5l4.3-3.1-.7 4.3c-2 13.3-16.3 29.4-30.5 34.4-21.2 7.4-41.6.4-57.2-19.8-2.8-3.7-5.9-11.9-5.9-15.8v-3l4.4 3c2.5 1.8 4.8 4.3 5.5 6.1 1.7 5 5 9 7.5 9 2.6 0 4.6-1.8 4.6-4.2 0-1.6.3-1.6 4.2-.2 6.6 2.3 21.7 3.9 26.8 2.8 5-1 7.1-3.5 5.4-6.1-.9-1.5-3.2-1.9-12.5-2.4-8.7-.5-13.4-1.4-19.9-3.5l-8.5-2.9.1-7.5c0-8.1 1.4-13.2 7.5-27.6 6.4-15 8.8-31.1 6.9-45.4-.6-4.7-1.3-9.3-1.6-10.3-.5-1.5.2-1.7 5.5-1.7 6 0 6.1.1 6.1 2.7 0 1.6.9 7.4 2 13.1 2.8 14.3 2.6 21.8-1 36.3-3.1 12.9-5.6 32.5-4.5 35.9 1 3.1 3.8 4.2 6.3 2.4 1.8-1.2 2.2-2.5 2.2-6.7.1-8.3 1.7-18.8 5.1-32.4 3.5-14.1 3.6-22.3.5-36.8-.8-3.9-1.6-9-1.8-11.4l-.3-4.4 6.2-1.7c7-1.9 9.3-3.4 9.3-6 0-3.7-2.6-4.5-9.5-2.8-5.3 1.2-6.5 1.3-6.9.2-.7-1.9 1-20 2.5-25.8 1.2-4.7 1.1-5-1-6.7-5.5-4.4-8.9 3.7-9.8 22.8L71.7 86h-6.3c-7.5 0-7.6-.2-7.6-12.4 0-5.4.7-10.3 2.1-14.6 2.8-8.7 2.7-10.8-.4-11.6-3.7-.9-5.2.9-7.7 9-1.6 5.3-2.2 9.7-2.3 17.3v10.1L46 82.4c-5.6-2.3-6.2-3.9-5.5-12.4.9-10.1 2.2-15.2 6-23.5 7.7-16.8 24.8-24.5 42.2-19zm124.9 24c11.2 5 17.5 14.4 18.2 27 .8 15.9-4.7 28.5-19.9 45.6-14.8 16.7-18.9 25.7-21.3 46.9-.8 6.9-2.4 15.2-3.5 18.5-6.8 19.4-26.7 33-45.5 31.2-6-.6-17.2-3.9-18.9-5.6-.5-.5.2-2.1 1.6-3.6 2.2-2.6 2.6-2.7 5.7-1.7 4.6 1.7 14.7 1.5 20.8-.3 11.5-3.5 25-16.1 29.3-27.4 1.3-3.7 2-7.9 2-12.8 0-12.9-6.5-23.4-18.3-29.4-12.9-6.6-22.3-6.1-32.8 1.7l-6.1 4.5-1.4-3.5c-.8-2-1.5-3.7-1.5-3.9 0-.2 4-3.4 8.9-7 8.8-6.6 16.1-14.9 20.2-22.9 1.1-2.1 3.6-8.8 5.5-15 4.5-14 9-22.9 15.4-30 12.9-14.5 27.5-18.8 41.6-12.3zM51.9 93.6c1.2.9 3 14.5 3 22.9.1 12.2-1.7 20.7-6.4 32.3-5.8 13.8-7.5 19.3-8.2 25.5-.3 3.2-.9 6-1.3 6.2-.4.2-2.4-1-4.4-2.8l-3.7-3.2 1.6-7.4c.8-4 3.7-12.6 6.4-19s5.5-14.1 6.2-17.1c1.7-7.5 1.5-23.1-.5-31.3-2.3-9.9-2.4-9.8 2.7-7.9 2.3.9 4.4 1.7 4.6 1.8zM157.4 146c2.5 1 6.6 3.9 9 6.4 10.7 10.6 9.4 26.4-3.1 38.9-7 7-15.3 10.8-23.8 10.9-3.7 0-7.1-.4-7.7-1-.6-.6-.3-2.9.7-6.7 2.1-7 1.4-19.6-1.6-31.3-1.7-6.7-1.7-7.6-.3-9.7 1.8-2.8 7.3-7.1 10.6-8.5 3.9-1.5 11.4-1.1 16.2 1z"/><path d="M98.6 191.6c-2.1 2.1-2 3.7.3 5.8 2.5 2.3 5.9 1.3 6.7-2 1.2-4.6-3.7-7.2-7-3.8zM194.8 59.1c-10.6 1.7-21.4 10.7-27.1 22.7-2.8 5.9-3.2 7.7-3.2 15.2.1 13.4 5.2 22.3 15.2 26.5 6.7 2.8 19.4 1.4 23.4-2.6 2.3-2.3 2.3-2.9.5-5.4-1.3-1.8-1.8-1.8-6.2-.7-8 2-14.1 1.8-17.2-.5-9.4-6.9-10.5-20.1-2.8-33.1 7.2-12.3 20.1-17.4 29.8-12 4.7 2.7 6.6 5.9 7.8 13.6 1.2 6.9 2.7 8.7 6.3 7.3 2.4-.9 2.7-1.6 2.7-5.3 0-9.9-5-18.9-12.6-22.9-5.8-3.1-10.1-3.8-16.6-2.8z"/><path d="M213.2 99.7c-.7.2-1.7 1.3-2.2 2.4-1.6 2.9.4 5.9 4 5.9 3.8 0 5.2-4 2.5-7-1.9-2.1-2.2-2.2-4.3-1.3z"/></svg>